<?xml version="1.0" encoding="utf-8"?>
<!-- Generator: Adobe Illustrator 26.3.1, SVG Export Plug-In . SVG Version: 6.00 Build 0)  -->
<svg version="1.1" id="Layer_1" xmlns="http://www.w3.org/2000/svg" xmlns:xlink="http://www.w3.org/1999/xlink" x="0px" y="0px"
	 viewBox="0 0 2024.85 2024.85" style="enable-background:new 0 0 2024.85 2024.85;" xml:space="preserve">
<style type="text/css">
	.st0{fill:#FFFFFF;}
</style>
<rect x="0" y="0" class="st0" width="2024.85" height="2024.84"/>
<g>
	<path d="M1005.56,366.36L474.37,762.47v0.1c-1.27-0.05-2.55-0.1-3.83-0.1H182.7c-47.64,0-86.25,38.62-86.25,86.25v322.97
		c0,47.64,38.62,86.25,86.25,86.25h287.84c1.28,0,2.56-0.04,3.83-0.09v0.09l530.93,401.84c29.8,22.55,72.55,1.3,72.55-36.08V402.63
		C1077.85,365.4,1035.4,344.11,1005.56,366.36z"/>
	<path d="M1823.81,589.01c-60.09-116.36-142.9-217.27-241.22-294.47c-21.84-17.15-53.66-12.19-69.41,10.68l-0.58,0.84
		c-14.47,21.02-10.05,49.63,10.04,65.37c191.41,149.94,308.5,392.6,308.24,644.24c0,0.94,0,1.85-0.01,2.79
		c-1.13,249.55-118.78,473.21-332.64,634.49c-20.56,15.51-25.23,44.48-10.66,65.72l0.61,0.89c15.5,22.61,46.77,27.84,68.67,11.36
		c118.34-89.05,210.27-195.19,273.67-316.08c64.32-122.66,97.25-255.83,97.88-395.9c0-1.05,0-2.11,0.01-3.17
		C1928.55,869.36,1892.38,721.8,1823.81,589.01z"/>
	<path d="M1542.71,776.59c-36.39-79.11-88.78-150.92-156.08-214.02c-20.32-19.05-52.52-16.93-70.22,4.57l-0.7,0.85
		c-16.09,19.55-14.39,48.29,4.05,65.64c122.6,115.35,187.96,264.89,180.54,416.2c-6.56,133.69-69.73,255.54-175.04,340.34
		c-19.42,15.63-23.55,43.59-9.67,64.3l0.6,0.89c15.7,23.42,48.14,28.55,70.11,10.88c127.15-102.23,203.46-249.64,211.41-411.63
		C1602.3,960.94,1583.29,864.81,1542.71,776.59z"/>
	<path d="M1176.56,839.73l-0.61,0.61c-14.78,14.77-16.65,37.98-4.66,55.09c49.34,70.4,49.34,165.09,0,235.49
		c-11.99,17.11-10.12,40.31,4.66,55.09l0.61,0.61c18.74,18.74,49.91,16.21,65.22-5.42c34.57-48.85,53.19-107.01,53.19-168.02
		c0-61.01-18.62-119.17-53.19-168.02C1226.47,823.51,1195.3,820.98,1176.56,839.73z"/>
</g>
</svg>
